<?xml version="1.0" standalone="no"?>
<!DOCTYPE svg PUBLIC "-//W3C//DTD SVG 20010904//EN"
 "http://www.w3.org/TR/2001/REC-SVG-20010904/DTD/svg10.dtd">
<svg version="1.0" xmlns="http://www.w3.org/2000/svg"
 width="288.000000pt" height="288.000000pt" viewBox="0 0 288.000000 288.000000"
 preserveAspectRatio="xMidYMid meet">
<metadata>
Created by potrace 1.11, written by Peter Selinger 2001-2013
</metadata>
<g transform="translate(0.000000,288.000000) scale(0.100000,-0.100000)"
fill="#000000" stroke="none">
<path d="M1265 2675 c-114 -22 -228 -69 -327 -136 -123 -84 -292 -285 -266
-316 6 -7 14 -13 17 -13 4 0 28 30 54 68 92 134 224 243 364 301 115 47 302
83 304 58 4 -36 4 -79 -1 -82 -4 -2 -29 -6 -57 -9 -361 -35 -650 -352 -654
-716 -1 -100 5 -149 32 -238 37 -121 110 -237 209 -330 63 -59 94 -76 110 -57
9 11 6 18 -17 37 -62 50 -160 158 -191 210 -40 68 -77 172 -91 253 -9 57 -8
198 2 240 20 82 31 116 38 121 5 3 9 13 10 22 0 19 72 136 109 178 46 53 124
115 188 151 89 50 170 74 287 87 l30 3 0 -196 c-1 -108 1 -202 3 -208 2 -7 13
-13 23 -13 19 0 19 11 17 298 l-3 297 -60 2 c-33 1 -91 -4 -130 -12z"/>
<path d="M1264 2252 c-26 -18 -24 -44 6 -74 25 -25 33 -28 45 -18 18 15 20 71
3 88 -13 13 -38 15 -54 4z"/>
<path d="M632 2168 c-6 -7 -19 -40 -30 -73 -88 -261 -47 -548 110 -785 31 -46
151 -170 211 -218 102 -79 301 -153 447 -164 l45 -4 1 -344 c1 -190 2 -356 3
-369 1 -23 2 -24 82 -17 187 15 339 75 486 190 278 221 398 580 308 927 -24
91 -43 129 -65 129 -24 0 -25 -5 -4 -61 151 -405 -29 -862 -413 -1053 -108
-53 -177 -73 -284 -82 l-66 -6 -1 46 c-2 40 0 46 18 46 11 0 21 0 23 0 144 26
287 78 287 104 0 26 -15 26 -81 -1 -77 -31 -161 -52 -210 -53 l-37 0 3 682 c2
376 4 689 4 697 1 20 103 8 199 -25 231 -77 397 -263 459 -516 3 -13 7 -66 9
-118 8 -235 -80 -416 -288 -592 -32 -27 -25 -55 11 -43 25 8 146 123 184 175
42 57 95 172 117 251 66 244 -8 523 -188 706 -108 110 -269 193 -405 209 -29
4 -59 8 -67 10 -8 1 -19 3 -25 3 -5 1 -10 20 -10 44 l1 42 59 -1 c122 -2 269
-53 395 -137 63 -42 182 -164 225 -231 35 -55 58 -69 68 -42 8 20 -73 135
-143 206 -156 155 -379 252 -597 260 -8 0 -13 15 -13 40 0 33 -3 40 -20 40
-11 0 -20 -6 -21 -12 -1 -7 -1 -217 0 -466 l1 -454 -57 7 c-32 3 -96 20 -143
36 -125 44 -130 45 -130 21 0 -14 13 -25 48 -40 81 -34 148 -53 214 -60 l63
-7 3 -47 3 -48 -33 0 c-53 1 -199 36 -269 65 -212 90 -382 269 -469 493 -19
51 -23 66 -40 167 -9 56 -6 233 5 280 4 17 18 65 32 107 23 72 24 98 4 98 -5
0 -13 -6 -19 -12z"/>
<path d="M1105 2073 c-25 -24 -17 -51 21 -71 52 -27 87 24 44 63 -27 24 -47
27 -65 8z"/>
<path d="M1042 1838 c-43 -43 30 -92 81 -54 23 18 22 32 -5 50 -27 19 -59 21
-76 4z"/>
<path d="M1115 1607 c-39 -34 -14 -88 34 -72 22 7 52 58 42 73 -14 22 -50 22
-76 -1z"/>
<path d="M1580 1523 c-21 -8 -30 -24 -30 -53 0 -42 14 -56 44 -42 37 17 52 59
30 83 -18 20 -20 21 -44 12z"/>
<path d="M1270 1440 c-36 -36 -21 -84 25 -78 22 2 31 10 36 32 9 33 -4 66 -26
66 -8 0 -24 -9 -35 -20z"/>
<path d="M1704 1325 c-21 -32 -15 -59 14 -63 29 -4 72 23 72 46 0 45 -60 57
-86 17z"/>
<path d="M1771 1107 c-13 -6 -23 -15 -22 -19 0 -5 1 -14 1 -21 0 -22 46 -38
75 -27 31 12 34 54 6 70 -25 13 -31 13 -60 -3z"/>
<path d="M1693 873 c-10 -26 19 -68 50 -71 21 -3 29 2 39 24 11 23 10 28 -11
45 -29 23 -69 25 -78 2z"/>
<path d="M1551 708 c-19 -51 18 -100 59 -78 27 14 26 54 -2 80 -28 26 -47 25
-57 -2z"/>
</g>
</svg>
